PathFileType	4	(X/Y/Z)	OpenSim_Sub10_EMGBaseline_Accel.trc
DataRate	CameraRate	NumFrames	NumMarkers	Units	OrigDataRate	OrigDataStartFrame	OrigNumFrames
100	100	41	8	m	100	3076	8201
Frame#	Time	torso_imu_offset_imu	pelvis_imu_offset_imu	tibia_r_imu_offset_imu	femur_r_imu_offset_imu	tibia_l_imu_offset_imu	femur_l_imu_offset_imu	toes_r_imu_offset_imu	toes_l_imu_offset_imu
				X1	Y1	Z1	X2	Y2	Z2	X3	Y3	Z3	X4	Y4	Z4	X5	Y5	Z5	X6	Y6	Z6	X7	Y7	Z7	X8		Y8	Z8	

3076	30.75000000	8.61940400	-0.22210600	5.79095000	9.23089800	1.49001600	3.26123700	10.07212300	1.75123300	-0.34869600	9.22179700	0.11662400	-0.88481700	-0.00611900	-6.61413400	3.12838500	8.90276800	3.18357500	0.40680800	4.98969900	0.26046200	8.71680500	-0.42249100	0.30146500	11.48739400
3077	30.76000000	8.64021400	-0.36864000	5.85340700	8.93895100	1.64321000	3.16367900	9.57028600	1.90700800	-0.18538900	9.24807600	0.06285500	-0.98974500	-0.30072800	-6.45664900	2.38275000	8.72887100	3.28899700	0.50538800	4.81331900	0.28605000	8.80218300	-0.58838800	0.31581800	11.08035500
3078	30.77000000	8.86778600	-0.42546900	5.86422600	8.74008200	1.68580400	3.14304000	9.43557200	2.03418700	0.01298400	9.19848200	-0.14216000	-0.96617300	0.15657300	-5.92642900	2.06925700	8.58993800	3.38434200	0.50178700	4.89372400	0.24394600	8.72122800	-0.02072900	-0.36762000	10.90334300
3079	30.78000000	9.21251100	-0.43371700	5.77291700	8.59439300	1.64830400	3.06067400	9.62960600	1.91738000	-0.14501100	9.20247000	-0.40405900	-0.72795300	1.12866600	-5.37471300	1.70210400	8.59854600	3.28092500	0.32874600	4.91035800	0.28696400	8.84410200	0.64136200	-0.76427200	11.02527800
3080	30.79000000	9.00214800	-0.30947100	5.81588400	8.45717700	1.62624600	2.95188800	9.87353500	1.75966200	-0.26596200	9.19234500	-0.68836800	-0.57953100	2.02981900	-5.33104200	1.64778100	8.54518200	3.15430800	0.20255100	5.00007200	0.21143800	8.62455100	1.21204600	-1.19938200	11.15923600
3081	30.80000000	8.69740300	-0.27872400	5.81786700	8.43064100	1.61943500	2.86883000	9.93419100	1.87924900	-0.27927600	9.22112300	-0.89836600	-0.43359900	2.46080200	-5.58192400	1.98839600	8.34106000	2.98299200	0.13440600	4.87778500	0.16686400	8.68223300	1.71217500	-1.49471900	11.44842100
3082	30.81000000	8.44863600	-0.21495500	5.86368400	8.44023400	1.59788900	2.85662500	9.82160100	2.26606300	-0.05141500	9.20713300	-1.16799500	-0.28388100	2.60427100	-5.56380800	1.85829100	8.18021800	2.78930000	-0.00010000	4.89328900	0.18440200	8.69946500	2.33203500	-1.59050300	11.88526500
3083	30.82000000	8.46171400	-0.28142500	5.76127100	8.53077000	1.65860400	2.80030800	9.72549000	2.53369100	-0.12744900	9.08729300	-1.28982700	-0.11455100	2.92130500	-5.18553300	1.04573500	7.94449600	2.66987100	-0.11301400	4.68582300	0.19968500	8.77784800	3.26881000	-1.63605300	12.48527700
3084	30.83000000	8.39188300	-0.32511700	5.86859300	8.62815500	1.77117600	2.74274900	9.64516100	2.50450700	0.17002100	8.97966700	-1.35414500	-0.02418700	3.24812700	-4.48787500	0.47974400	7.74236400	2.46709200	-0.14947500	5.10268200	0.28010100	8.52463200	4.70245200	-1.15644200	13.38604000
3085	30.84000000	8.32425900	-0.34119900	5.82524400	8.65820100	1.90561000	2.72556600	9.64879200	2.32208100	0.03628900	8.81469000	-1.26290700	-0.16332500	3.52760000	-4.19916400	0.92502100	7.53475600	2.32250300	-0.15284800	4.84337400	0.39564500	8.73583300	5.90644700	-0.81743900	14.46353300
3086	30.85000000	8.29110500	-0.46283500	5.93492800	8.67904900	2.00064800	2.63694900	9.62805200	1.95054900	0.10697800	8.68745300	-1.06011000	-0.35571500	4.15453800	-4.77659700	1.15912300	7.39638800	2.04470500	-0.22580600	4.92214800	0.35931500	8.65533900	7.52963400	-0.86469000	15.09297400
3087	30.86000000	8.11108200	-0.43728500	6.04343000	8.61010700	2.09384400	2.54065300	9.59073100	1.37034400	0.09212500	8.67904100	-0.82115900	-0.46039100	5.22595900	-5.61672900	1.67116700	7.17435600	1.99737300	-0.13176600	4.89959400	0.32227500	8.59951700	9.05089300	-0.36801500	15.63273200
3088	30.87000000	7.99151400	-0.40262500	6.10481200	8.43044400	2.23404400	2.46182600	9.63783900	0.49266500	0.08384100	8.57534700	-0.74655100	-0.35683600	6.42620300	-6.13565100	2.74267500	6.99372700	2.03123700	-0.08724800	5.12577900	0.35675700	8.49822200	10.38958700	1.00897800	15.32105600
3089	30.88000000	7.96870000	-0.42071800	6.10300000	8.22897900	2.36871800	2.43418100	9.80004600	-0.33355900	-0.09010800	8.56791100	-0.60703600	-0.22943700	7.92874200	-5.42718800	3.41697800	6.73478800	2.22022100	0.03334000	4.87694400	0.31140000	8.68682500	12.70664900	3.66140500	14.99277900
3090	30.89000000	7.94851400	-0.46476700	6.01389600	7.94940800	2.48941400	2.51873100	9.88334000	-0.78115400	-0.09750000	8.62089700	-0.42822900	-0.12144400	9.89542000	-3.37643200	3.40758600	6.41049200	2.42554900	0.25206700	4.85181500	0.17380000	8.64894200	17.08698500	6.59802100	15.68499200
3091	30.90000000	7.96089700	-0.50641400	5.83019200	7.64071700	2.63259100	2.47657700	9.99113300	-0.91494500	0.06023300	8.75119900	-0.13556100	-0.12382100	11.95126800	-1.54081700	3.30938800	6.11342200	2.90172300	0.78875300	4.88615400	0.21750500	8.61695000	21.65738000	6.02963500	16.00991900
3092	30.91000000	7.93439800	-0.65764300	5.71555000	7.44853700	2.81732300	2.57695400	9.89884100	-0.76973800	0.16441200	8.80297100	0.05007400	-0.18978900	13.63219600	-0.99475900	3.05115200	6.01277500	3.32601800	1.59764900	4.73508400	0.33109800	8.68172700	23.01246500	2.91726600	13.90065400
3093	30.92000000	8.00595400	-0.68219700	5.78686200	7.34739300	2.94717500	2.70997700	9.86898700	-0.61915500	0.13247800	8.90857200	0.00138300	-0.30743500	15.01607200	1.13143000	2.11624400	6.37413200	3.66527000	2.29840100	4.98586500	0.34660100	8.66607200	23.00470600	0.91315500	11.22834900
3094	30.93000000	8.19456200	-0.71600200	5.81662100	7.39840800	3.12118400	2.83250200	9.97886100	-0.44882700	-0.08120400	9.12081100	-0.36871100	-0.59277600	16.00879300	4.00761800	0.12964000	7.00120800	4.33957900	2.61125600	4.75219900	0.22583000	8.76185300	23.30849200	-0.36269200	8.61345100
3095	30.94000000	8.49391200	-0.67014100	5.81253400	7.55931700	3.24951200	3.08486800	10.11182000	-0.49082800	0.03009500	9.40454100	-0.85470300	-1.09223300	15.82416200	2.93994600	-1.38182200	7.79774800	4.71243300	2.57867900	4.71953300	0.16441500	8.72413000	23.62240300	-1.60677200	5.37643500
3096	30.95000000	8.88442500	-0.73363800	5.75066100	7.89810800	3.26751600	3.23199100	10.31311300	-0.68852900	-0.25358300	9.58290400	-1.35847000	-1.45360500	14.55079900	-0.31872500	-1.87708800	8.41470500	5.67043000	2.22074300	4.66708500	0.24213200	9.11201100	22.75394300	-1.94398100	1.95035200
3097	30.96000000	9.16004000	-0.76608900	5.67593700	8.18415100	3.07588400	3.20314500	10.38800200	-0.85713900	-0.25125700	9.34108300	-1.61229000	-1.49831100	13.21804300	-4.12056100	-1.21692900	8.41730500	7.16205400	1.57816100	4.97298300	-0.07444400	8.77541400	23.30172100	-1.83806700	0.00470100
3098	30.97000000	9.23649000	-0.84642400	5.67074000	8.55055200	2.63169100	3.07132300	10.26388000	-0.87141400	-0.44904700	8.91080800	-1.49092900	-1.19499400	9.89773900	-6.85948800	-0.33344900	7.93855300	9.02622100	0.91169500	4.69999600	0.06787700	8.89501900	22.09559300	-2.01988900	-1.85846000
3099	30.98000000	9.18597600	-0.95288800	5.70427000	8.80838000	2.14360100	2.80969100	10.05947400	-0.65964700	-0.25260100	8.64429600	-1.07874800	-0.80942200	6.72126800	-7.22642800	-0.12624400	6.94893200	10.84729600	-0.60146000	4.86353300	0.48555900	9.04286200	20.05499100	-2.92554700	-3.94890100
3100	30.99000000	9.18194600	-1.01413000	5.70798200	8.91598100	1.78423400	2.54024500	9.99171400	-0.18951800	0.27354400	8.66730700	-0.66549900	-0.51909800	6.29761600	-4.75954400	-0.38090300	6.17683600	11.49364900	-1.87062300	4.80039100	0.53344300	9.03441700	21.06495000	-1.14251700	-3.77130500
3101	31	9.27199300	-0.98275000	5.75215200	9.03107900	1.62065100	2.22529100	10.00905600	0.29469800	0.36090300	8.83461600	-0.39010300	-0.37503700	8.42178600	-1.35290200	-0.08727100	6.77391300	10.19752500	-1.75683900	4.79585800	0.62689700	9.03151700	20.36976800	-0.37702500	-5.03023200
3102	31.01000000	9.48670600	-0.87692200	5.89664000	9.09751000	1.61226400	2.05672700	10.18899900	0.63725600	0.09089000	9.07007600	-0.48289500	-0.59703000	10.37752100	0.21203000	-0.41463900	7.33624200	8.32970300	-1.59674900	4.80295300	0.92646900	9.28415100	18.75361300	3.50067400	-8.33656600
3103	31.02000000	9.90917600	-0.81069000	5.92613200	9.37453100	1.72081500	1.95554300	10.39747800	1.26929200	0.50526900	9.31512300	-0.64388500	-0.95311300	10.64938400	-0.19359900	-0.79259800	7.98697300	6.85915600	-1.21373300	4.60593000	0.60796300	9.46337700	21.30003100	4.28281100	-9.43360300
3104	31.03000000	10.29872200	-0.67393700	6.13851000	9.79086100	1.84492600	1.91967200	10.75737800	1.48159300	0.40175400	9.53489500	-0.76558600	-1.25131500	10.25853700	-2.08975100	0.67468500	8.79943800	5.80496900	-0.10861800	4.66333900	0.42154800	9.59304000	15.69719300	0.95253800	-3.12601600
3105	31.04000000	10.65615800	-0.49333500	6.24605500	10.29432900	1.97678700	2.31439700	11.16789200	1.58622600	0.56394200	9.68185700	-0.75691800	-1.64446500	10.39889300	-4.03725400	1.98696900	9.23008100	4.98159400	1.19702400	4.75951600	0.79231900	9.52266200	14.44008400	3.54427400	19.58299600
3106	31.05000000	11.07887900	-0.41158400	6.51845600	10.80549400	2.04512600	3.11424500	11.79427800	1.49368900	0.93532800	9.98841900	-0.71362700	-1.85271300	11.44638700	-1.67953700	1.84393700	9.40316800	4.00939100	1.85230600	4.68590400	2.77935400	10.92182800	1.85619600	-7.02995500	17.86244800
3107	31.06000000	11.82141400	-0.35010100	6.83009500	11.50298400	1.90930300	3.75495600	12.56287100	1.20649600	0.97421900	10.77331700	-0.63515900	-1.88281600	13.42323900	5.48127900	3.61646800	10.60588200	3.61059600	1.58357200	4.51661200	-0.39988500	9.88378900	2.83169800	-9.28608500	12.48036300
3108	31.07000000	12.46895600	-0.21621000	6.95678000	12.45450800	1.78172300	3.59740900	13.21720100	0.39741300	1.24906400	11.88029400	-0.64191700	-1.88411800	15.73168100	7.55330400	7.83113100	11.89990400	4.68777600	1.31219900	4.10641800	0.88370500	11.03542600	12.17379400	-5.54340200	15.85899700
3109	31.08000000	12.55713100	-0.13274000	6.85087600	13.14851500	1.71680200	3.30983200	13.33552300	-0.73454200	1.67162600	12.40002300	-0.62234200	-1.57083900	14.42675700	3.04813600	8.50102900	13.82540900	4.27779700	1.56834800	3.95580300	-0.40801500	11.08988500	10.99760100	1.27907200	14.28975800
3110	31.09000000	12.16360500	-0.13485900	6.82006900	13.14067200	1.82580800	3.37803000	13.48120500	-1.94353600	2.12703400	12.54226800	-0.70631900	-0.89518400	10.50944700	-1.07586200	4.80108700	14.62865000	3.23934200	1.07459400	4.08821700	-0.30343600	10.73936500	8.11559500	5.51714100	11.58259600
3111	31.10000000	11.64725400	0.31075400	7.11125100	12.47938100	2.02183500	3.45574300	13.41516100	-2.74114600	2.22739500	12.45112900	-1.04820900	-0.23440200	8.11463000	-4.72601300	0.34903100	12.78232800	3.44053600	0.28639900	3.63636500	-0.00888300	11.01117900	9.27922600	3.83438900	11.97962600
3112	31.11000000	11.41010400	0.46982900	6.97814500	11.56676700	2.34812700	3.59820500	13.34268700	-2.37130200	2.70446400	12.34572100	-1.42948100	0.15095400	7.38763200	-7.87665100	-1.95367500	10.64376800	3.71076900	0.11841300	3.64979300	-0.62466800	10.87137700	15.40778300	0.99410600	15.96794000
3113	31.12000000	11.59416400	0.26331600	6.64901900	10.92325700	2.40273300	3.97125600	13.59369100	-1.42863200	2.87926200	12.24259100	-1.76336900	0.25838500	7.80536300	-10.89985500	-3.43663300	9.59970100	3.01095200	-0.70710800	4.16161400	-0.23656500	11.45918100	11.92580100	0.09609300	15.48845500
3114	31.13000000	11.47891100	0.27455800	6.63427000	10.63601900	2.22532500	4.32170400	14.10246900	-0.38352400	3.05200600	12.02116000	-2.02344600	0.43992500	8.97824900	-12.21552900	-4.16138500	9.49752400	2.65100700	-1.73646900	3.65768300	-0.62843800	11.09267300	5.51754100	-0.76177700	10.22060600
3115	31.14000000	11.34544800	0.52844000	6.60299800	10.63210400	1.96257800	4.45780100	14.53617700	0.29688700	2.99876800	11.39258400	-2.17092600	0.73536300	9.96266100	-11.00563900	-3.44200100	9.46775900	2.25363300	-1.84774000	4.37682200	-0.35998100	11.24678600	9.96735900	1.38410900	11.39877200
3116	31.15000000	11.32500400	0.71777300	6.47482000	10.82163800	1.53996500	4.83768300	14.52245400	0.70237900	2.06466700	10.62000700	-2.08888800	1.16883100	9.98653300	-9.61554900	-2.00652900	10.15981900	1.45690700	-1.99297200	5.76624200	0.14246000	11.06485000	7.16075800	1.98687100	11.25225900
